<svg xmlns="http://www.w3.org/2000/svg" xmlns:xlink="http://www.w3.org/1999/xlink" viewBox="0,0,256,256" width="100px" height="100px" fill-rule="nonzero"><g fill="#dddddd" fill-rule="nonzero" stroke="none" stroke-width="1" stroke-linecap="butt" stroke-linejoin="miter" stroke-miterlimit="10" stroke-dasharray="" stroke-dashoffset="0" font-family="none" font-weight="none" font-size="none" text-anchor="none" style="mix-blend-mode: normal"><path d="M0,256v-256h256v256z" id="bgRectangle"></path></g><g fill="none" fill-rule="nonzero" stroke="none" stroke-width="1" stroke-linecap="butt" stroke-linejoin="miter" stroke-miterlimit="10" stroke-dasharray="" stroke-dashoffset="0" font-family="none" font-weight="none" font-size="none" text-anchor="none" style="mix-blend-mode: normal"><g transform="scale(2.56,2.56)"><path d="M82,63.613v-27.226c0,-3.008 -1.603,-5.789 -4.211,-7.293l-23.578,-13.614c-2.606,-1.504 -5.814,-1.504 -8.421,0l-23.579,13.614c-2.606,1.504 -4.211,4.285 -4.211,7.293v27.227c0,3.008 1.605,5.789 4.211,7.293l23.578,13.613c2.607,1.504 5.816,1.504 8.421,0l23.579,-13.613c2.608,-1.505 4.211,-4.286 4.211,-7.294" fill="#fefdef"></path><path d="M76.843,33.356l-23.497,13.055c-2.065,1.147 -3.346,3.322 -3.346,5.685v30.022c0,1.812 1.948,2.959 3.534,2.079l25.434,-14.131c0.839,-0.701 1.526,-1.549 2.032,-2.5v-31.762c0,-2.134 -2.292,-3.485 -4.157,-2.448z" fill="#444445"></path><path d="M60.092,52.778c0.189,-0.096 0.345,0.022 0.347,0.269l0.02,2.021c0.845,-0.335 1.58,-0.426 2.247,-0.271c0.145,0.037 0.209,0.234 0.15,0.468l-0.445,1.79c-0.037,0.136 -0.111,0.273 -0.202,0.357c-0.04,0.039 -0.079,0.067 -0.118,0.088c-0.061,0.03 -0.12,0.04 -0.175,0.029c-0.305,-0.069 -1.027,-0.227 -2.164,0.349c-1.192,0.605 -1.61,1.64 -1.602,2.408c0.01,0.92 0.482,1.199 2.109,1.228c2.168,0.035 3.104,0.984 3.126,3.165c0.024,2.146 -1.122,4.448 -2.873,5.858l0.039,2.003c0.002,0.241 -0.153,0.517 -0.344,0.613l-1.186,0.682c-0.189,0.096 -0.345,-0.022 -0.347,-0.263l-0.02,-1.969c-1.016,0.423 -2.043,0.524 -2.7,0.261c-0.125,-0.049 -0.179,-0.232 -0.128,-0.441l0.429,-1.809c0.034,-0.141 0.109,-0.285 0.212,-0.376c0.035,-0.035 0.074,-0.062 0.111,-0.081c0.067,-0.034 0.133,-0.042 0.19,-0.02c0.707,0.237 1.612,0.126 2.484,-0.315c1.105,-0.559 1.846,-1.688 1.834,-2.809c-0.01,-1.016 -0.561,-1.438 -1.9,-1.448c-1.704,0.003 -3.293,-0.33 -3.32,-2.84c-0.022,-2.067 1.053,-4.216 2.754,-5.575l-0.02,-2.02c-0.002,-0.248 0.15,-0.52 0.344,-0.62z" fill="#fefdef"></path><path d="M71.572,68.64l-5.704,3.185c-0.109,0.061 -0.244,-0.019 -0.244,-0.143v-1.252c0,-0.113 0.061,-0.217 0.16,-0.273l5.704,-3.185c0.111,-0.061 0.246,0.019 0.246,0.145v1.248c0,0.115 -0.062,0.219 -0.162,0.275" fill="#4da925"></path><path d="M44,78.213c-0.085,0 -0.171,-0.021 -0.25,-0.067l-2,-1.155c-0.239,-0.138 -0.321,-0.444 -0.183,-0.683c0.138,-0.24 0.444,-0.32 0.683,-0.183l2,1.155c0.239,0.138 0.321,0.444 0.183,0.683c-0.092,0.161 -0.261,0.25 -0.433,0.25zM40,75.904c-0.085,0 -0.171,-0.021 -0.25,-0.067l-11.093,-6.404c-0.239,-0.138 -0.321,-0.444 -0.183,-0.683c0.138,-0.239 0.444,-0.319 0.683,-0.183l11.093,6.404c0.239,0.138 0.321,0.444 0.183,0.683c-0.092,0.16 -0.261,0.25 -0.433,0.25zM27,68.398c-0.085,0 -0.171,-0.021 -0.25,-0.067l-2.105,-1.215c-1.323,-0.764 -2.145,-2.187 -2.145,-3.715v-17.401c0,-0.276 0.224,-0.5 0.5,-0.5c0.276,0 0.5,0.224 0.5,0.5v17.401c0,1.171 0.63,2.263 1.645,2.849l2.105,1.215c0.239,0.138 0.321,0.444 0.183,0.683c-0.092,0.161 -0.261,0.25 -0.433,0.25zM23,44.5c-0.276,0 -0.5,-0.224 -0.5,-0.5v-3c0,-0.276 0.224,-0.5 0.5,-0.5c0.276,0 0.5,0.224 0.5,0.5v3c0,0.276 -0.224,0.5 -0.5,0.5zM23,39.5c-0.276,0 -0.5,-0.224 -0.5,-0.5v-2.4c0,-0.276 0.224,-0.5 0.5,-0.5c0.276,0 0.5,0.224 0.5,0.5v2.4c0,0.276 -0.224,0.5 -0.5,0.5z" fill="#1f212b"></path><path d="M77.855,28.553l-23.21,-13.399c-2.816,-1.627 -6.466,-1.629 -9.29,0l-23.211,13.4c-2.865,1.655 -4.644,4.738 -4.644,8.046v26.802c0,3.308 1.779,6.391 4.645,8.045l23.212,13.4c1.412,0.814 3.018,1.245 4.644,1.245c1.628,0 3.234,-0.431 4.645,-1.245l23.211,-13.4c2.864,-1.653 4.645,-4.735 4.645,-8.045v-26.802c-0.002,-3.309 -1.781,-6.392 -4.647,-8.047zM46.355,83.114l-23.211,-13.4c-2.248,-1.298 -3.645,-3.716 -3.645,-6.312v-26.802c0,-2.596 1.396,-5.015 3.645,-6.314l23.211,-13.399c1.107,-0.639 2.367,-0.977 3.645,-0.977c1.279,0 2.539,0.338 3.645,0.977l23.211,13.399c1.051,0.607 1.906,1.465 2.529,2.465c-0.907,-0.355 -1.911,-0.317 -2.785,0.169l-23.496,13.054c-2.223,1.234 -3.604,3.58 -3.604,6.122v30.022c0,0.738 0.282,1.417 0.763,1.939c-1.354,0.047 -2.722,-0.259 -3.908,-0.943zM76.855,69.714l-23.211,13.4c-0.6,0.346 -1.249,0.591 -1.918,0.749c-0.101,-0.038 -0.204,-0.072 -0.3,-0.129c-0.58,-0.341 -0.926,-0.946 -0.926,-1.617v-30.021c0,-2.179 1.184,-4.19 3.09,-5.248l23.496,-13.054c0.351,-0.195 0.733,-0.292 1.116,-0.292c0.4,0 0.801,0.107 1.164,0.32c0.417,0.245 0.719,0.609 0.911,1.028c0.141,0.567 0.223,1.153 0.223,1.75v26.802c0,2.597 -1.396,5.015 -3.645,6.312z" fill="#1f212b"></path></g></g></svg>