<?xml version="1.0" encoding="UTF-8"?>
<!DOCTYPE svg PUBLIC "-//W3C//DTD SVG 1.1//EN" "http://www.w3.org/Graphics/SVG/1.1/DTD/svg11.dtd">
<svg xmlns="http://www.w3.org/2000/svg" version="1.1" width="800px" height="800px" style="shape-rendering:geometricPrecision; text-rendering:geometricPrecision; image-rendering:optimizeQuality; fill-rule:evenodd; clip-rule:evenodd" xmlns:xlink="http://www.w3.org/1999/xlink">
<g><path style="opacity:0.996" fill="#000000" d="M 369.5,-0.5 C 390.5,-0.5 411.5,-0.5 432.5,-0.5C 570.982,14.9498 676.149,81.9498 748,200.5C 776.139,250.748 793.306,304.415 799.5,361.5C 799.5,386.833 799.5,412.167 799.5,437.5C 783.547,567.497 721.214,668.33 612.5,740C 558.982,772.895 500.982,792.728 438.5,799.5C 412.5,799.5 386.5,799.5 360.5,799.5C 239.941,784.653 143.775,728.653 72,631.5C 31.1502,573.123 6.98356,508.456 -0.5,437.5C -0.5,412.833 -0.5,388.167 -0.5,363.5C 16.741,224.524 85.4077,119.691 205.5,49C 256.74,20.8622 311.406,4.36219 369.5,-0.5 Z"/></g>
<g><path style="opacity:0.769" fill="#f3f3f3" d="M 357.5,-0.5 C 361.5,-0.5 365.5,-0.5 369.5,-0.5C 311.406,4.36219 256.74,20.8622 205.5,49C 85.4077,119.691 16.741,224.524 -0.5,363.5C -0.5,360.5 -0.5,357.5 -0.5,354.5C 16.6402,217.641 84.6402,114.807 203.5,46C 251.858,20.2495 303.191,4.7495 357.5,-0.5 Z"/></g>
<g><path style="opacity:0.996" fill="#fefefe" d="M 508.5,240.5 C 517.506,240.334 526.506,240.5 535.5,241C 540,242.833 543.167,246 545,250.5C 545.667,345.167 545.667,439.833 545,534.5C 529.425,509.252 513.425,484.252 497,459.5C 496.333,390.167 496.333,320.833 497,251.5C 499.437,246.226 503.271,242.56 508.5,240.5 Z"/></g>
<g><path style="opacity:0.986" fill="#fefefe" d="M 262.5,251.5 C 273.216,251.156 283.882,251.656 294.5,253C 296.286,253.785 297.786,254.951 299,256.5C 400.915,409.995 502.582,563.662 604,717.5C 607.3,723.63 610.8,729.63 614.5,735.5C 606.422,740.957 598.255,746.29 590,751.5C 587.027,747.026 583.86,742.693 580.5,738.5C 579.675,737.614 578.675,737.281 577.5,737.5C 577.657,736.127 577.49,734.793 577,733.5C 538.667,682.167 500.333,630.833 462,579.5C 408.161,499.154 353.828,419.154 299,339.5C 298.974,418.521 298.307,497.521 297,576.5C 295.5,580.667 292.667,583.5 288.5,585C 278.5,585.667 268.5,585.667 258.5,585C 254.612,582.778 251.779,579.612 250,575.5C 249.838,470.717 250.171,365.717 251,260.5C 253.683,255.922 257.517,252.922 262.5,251.5 Z"/></g>
</svg>
