<?xml version="1.0" standalone="no"?>
<!DOCTYPE svg PUBLIC "-//W3C//DTD SVG 20010904//EN"
 "http://www.w3.org/TR/2001/REC-SVG-20010904/DTD/svg10.dtd">
<svg version="1.0" xmlns="http://www.w3.org/2000/svg"
 width="460.000000pt" height="460.000000pt" viewBox="0 0 460.000000 460.000000"
 preserveAspectRatio="xMidYMid meet">

<g transform="translate(0.000000,460.000000) scale(0.100000,-0.100000)"
fill="#000000" stroke="none">
<path d="M0 2300 l0 -2300 2300 0 2300 0 0 2300 0 2300 -2300 0 -2300 0 0
-2300z m3211 1257 c37 -25 57 -76 46 -118 -4 -14 -452 -469 -1046 -1063
l-1039 -1039 -46 5 c-26 3 -55 13 -65 23 -28 24 -44 71 -37 102 5 19 327 349
1029 1052 562 562 1036 1032 1052 1042 39 25 65 24 106 -4z m210 -1167 c40
-22 61 -98 39 -140 -14 -25 -1085 -1096 -1110 -1110 -42 -22 -118 -1 -140 39
-13 26 -13 77 2 104 13 26 1074 1089 1103 1105 25 14 80 15 106 2z"/>
</g>
</svg>
