<?xml version="1.0" encoding="UTF-8"?>
<!DOCTYPE svg PUBLIC "-//W3C//DTD SVG 1.1//EN" "http://www.w3.org/Graphics/SVG/1.1/DTD/svg11.dtd">
<svg xmlns="http://www.w3.org/2000/svg" version="1.1" width="575px" height="575px" style="shape-rendering:geometricPrecision; text-rendering:geometricPrecision; image-rendering:optimizeQuality; fill-rule:evenodd; clip-rule:evenodd" xmlns:xlink="http://www.w3.org/1999/xlink">
<g><path style="opacity:0.998" fill="#000000" d="M -0.5,-0.5 C 191.167,-0.5 382.833,-0.5 574.5,-0.5C 574.5,191.167 574.5,382.833 574.5,574.5C 382.833,574.5 191.167,574.5 -0.5,574.5C -0.5,382.833 -0.5,191.167 -0.5,-0.5 Z"/></g>
<g><path style="opacity:1" fill="#fefffe" d="M 391.5,127.5 C 401.937,128.434 406.77,134.101 406,144.5C 320.222,232.278 233.722,319.445 146.5,406C 135.857,407.852 129.524,403.519 127.5,393C 128.317,391.51 129.15,390.01 130,388.5C 215.729,299.938 302.896,212.938 391.5,127.5 Z"/></g>
<g><path style="opacity:1" fill="#fefffe" d="M 415.5,275.5 C 429.074,274.242 434.241,280.242 431,293.5C 385.833,340 340,385.833 293.5,431C 286.647,433.607 280.814,432.107 276,426.5C 275.133,422.044 275.466,417.711 277,413.5C 322.396,366.604 368.562,320.604 415.5,275.5 Z"/></g>
</svg>
